<?xml version="1.0" encoding="UTF-8"?><svg id="Layer_2" xmlns="http://www.w3.org/2000/svg" viewBox="0 0 48 48"><defs><style>.cls-1{fill:#231f20;}.cls-1,.cls-2{stroke-width:0px;}.cls-2{fill:#fff;}</style></defs><g id="Layer_1-2"><rect class="cls-2" x="0" y="0" width="48" height="48" rx="5.54" ry="5.54"/><path class="cls-1" d="M26.12,26.82v10.24c-1.19,0-2.26.04-3.33,0-6.6-.28-11.98-5.76-12.25-12.45-.27-6.55,4.62-12.45,11.09-13.28,1.58-.2,3.19-.12,4.79-.19,2.78-.13,5.02-2.52,4.79-5.05-3.26,0-6.54-.25-9.77.05-8.13.75-14.78,7.3-15.92,15.39-1.16,8.28,3.48,16.34,11.16,19.48,3.12,1.28,6.36,1.33,9.63,1.29,1.65-.02,3.3,0,4.99,0,0-3.72.12-7.27-.04-10.81-.12-2.79-2.45-4.78-5.14-4.66Z"/><path class="cls-1" d="M41.67,31.78c-.11-5.48-2.54-9.64-6.85-12.84,4.34-3.21,6.79-7.41,6.85-12.95h-5.12c-.04.34-.09.64-.12.95-.39,4.45-3.68,8.28-8.04,9.12-1.62.31-3.32.24-4.98.28-5.32.11-8.98,5.27-7.27,10.3.79,2.32,2.36,3.91,4.79,4.84,0-2.5-.01-4.83,0-7.16.01-1.7,1.03-2.74,2.71-2.77.9-.02,1.81-.01,2.71,0,4.71.08,8.79,3.38,9.84,7.97.18.77.38,2.15.38,2.36h0v10.34h5.1v-10.45h0Z"/></g></svg>