<?xml version="1.0" encoding="UTF-8"?><svg id="Layer_2" xmlns="http://www.w3.org/2000/svg" viewBox="0 0 357.58 357.58"><defs><style>.cls-1{fill:#171717;}.cls-1,.cls-2{stroke-width:0px;}.cls-2{fill:#fff;}</style></defs><g id="Layer_1-2"><circle class="cls-2" cx="178.79" cy="178.79" r="178.79"/><path class="cls-1" d="M179.68,191.62v49.04c-5.7,0-10.83.19-15.95-.03-31.6-1.35-57.35-27.56-58.66-59.59-1.28-31.36,22.1-59.59,53.08-63.59,7.55-.98,15.28-.56,22.92-.92,13.32-.63,24.02-12.07,22.94-24.19-15.61,0-31.31-1.19-46.78.23-38.94,3.58-70.75,34.96-76.19,73.67-5.57,39.64,16.67,78.21,53.42,93.26,14.92,6.11,30.44,6.37,46.11,6.18,7.9-.09,15.81-.02,23.9-.02,0-17.83.57-34.82-.18-51.75-.59-13.35-11.71-22.89-24.6-22.29Z"/><path class="cls-1" d="M254.15,215.34c-.55-26.25-12.15-46.14-32.81-61.47,20.77-15.39,32.48-35.46,32.79-62h-24.51c-.21,1.63-.45,3.09-.58,4.55-1.88,21.29-17.6,39.65-38.47,43.66-7.75,1.49-15.89,1.16-23.86,1.33-25.46.54-43.01,25.22-34.79,49.31,3.79,11.11,11.32,18.72,22.92,23.17,0-11.97-.05-23.11.02-34.26.05-8.16,4.92-13.1,12.97-13.24,4.33-.08,8.66-.07,12.99,0,22.53.38,42.07,16.18,47.12,38.16.84,3.68,1.82,10.31,1.82,11.29v49.52h24.41v-50.02h-.01Z"/></g></svg>