<?xml version="1.0" encoding="UTF-8"?><svg id="Layer_2" xmlns="http://www.w3.org/2000/svg" viewBox="0 0 225.44 259.66"><defs><style>.cls-1{fill:none;stroke:#fff;stroke-miterlimit:10;stroke-width:1.5px;}</style></defs><g id="Layer_2-2"><path class="cls-1" d="M195.03,138.02c5.09,9.75,11.26,6.29,13.37,4.89s3.98-3.68,5.5-5.72c3.92-5.26,7.16-10.78,9.45-16.93.55-1.48,1-3.01,1.15-4.59.15-1.55.24-4.09.16-5.65-.14-2.61-.33-4.27-.87-6.83-.36-1.69-.98-3.32-1.59-4.94-1.06-2.81-2.16-5.67-4-8.05-.87-1.11-1.91-2.12-3.19-2.73-2.64-1.26-5.84-.6-8.41.79-3.8,2.04-6.67,4.73-8.62,8.58-.68,1.35-1.76,3.88-2.27,5.38-.63,1.86-.93,4.48-1.4,6.38-.73,2.96-1.1,5.56-1.87,8.85"/><path class="cls-1" d="M46.2,127.88c3.69,3.23,6.49,7.47,8.01,12.13,1.4,4.27,1.74,8.8,2.42,13.24.81,5.28,2.12,10.5,4.26,15.39,4.5,10.25,12.45,18.63,17.41,28.67,2.46,4.99,4.17,10.34,6.86,15.21,4.55,8.22,11.73,14.7,16.77,22.63,1.52,2.39,2.85,4.93,4.71,7.07,1.86,2.14,4.37,3.9,7.24,4.18,8.67,2.87,18.35,1.44,26.64-2.38s15.35-9.88,21.76-16.39c10.96-11.13,20.27-23.75,29.55-36.32,1.57-2.12,3.15-4.28,4.08-6.75,1.38-3.67,1.19-7.72.98-11.64-.62-11.73-1.25-23.46-1.86-35.08"/><path class="cls-1" d="M179.7,84.4c-4.41,2.28-9.1,4.02-13.93,5.16-1.67.4-3.37.72-5.08.72-1.63,0-3.25-.31-4.82-.76-3.65-1.07-7.05-2.98-10.73-5.64-5.74,2.56-11.72,5.17-17.99,4.99-1.75-.05-3.48-.32-5.17-.75-6.57-1.7-12.4-6.12-15.25-11.44l-4.74.09c-.95,6.51-2.69,12.9-5.17,18.99-.75,1.83-1.58,3.66-2.86,5.16s-3.08,2.66-5.16,2.75c.29,2.77-1.2,5.64-3.62,7.01s-5.65,1.16-7.73-.54c-2.57.52-5.3-.33-7.4-1.9s-3.64-3.79-4.58-7c-2.61.89-5.43,1.17-8.17.73l-.26.26"/><path class="cls-1" d="M52.52,123.25c-1.53-.37-4.29-1.41-5.75-.32-1.68,1.26-.79,3.9-.46,5.6"/><path class="cls-1" d="M57.27,102.07c-.99,4.31-5.49,6.68-9.48,7.57l.27.48"/><path class="cls-1" d="M48.02,130.05c-1.54,3.51-6.08,5.07-9.76,3.97s-6.42-4.34-7.79-7.93c-.18-.46-.34-.94-.65-1.33-.34-.43-.84-.71-1.3-1-2.19-1.37-4.06-3.26-4.9-5.44-5.06.18-10.14-2.26-13.17-6.33-1.19-1.59-2.12-3.46-3.21-4.42-2.06.62-3.9,1.93-5.17,3.67-1.26-.92-1.45-2.73-1.26-4.29.58-4.75,3.8-9.09,8.57-11.01-1.78-.71-4.09.08-5.54-1.18-.45-.39-.75-.94-.98-1.49-1.68-3.97-.5-8.97,2.77-11.78,2.23-1.92,5.14-2.78,7.82-4,3.69-1.68,7.03-4.13,9.39-7.98,1.09-2.03,1.41-4.47.87-6.72-.42-1.75-1.33-3.35-1.86-5.08-1.76-5.78,1.21-12.21,5.86-16.07s10.67-5.62,16.59-6.84c1.47-.3,2.99-.6,4.1-1.71l7.71-8.49c2.55-2.81,5.12-5.64,8.08-8.03,7.16-5.77,16.16-8.63,24.93-11.37,2.17-.68,4.35-1.36,6.52-2.04,2.23-.7,4.45-1.39,6.13-1.93,9.36-2.09,18.64,3.48,28.2,4.36,4.33.4,8.68-.18,13.02-.07,3.47.09,6.91.62,10.34,1.15,12.93,2,26.33,4.17,36.96,11.63,9.11,5.68,16.59,13.96,21.58,24.18,1.81-1.05,4.27.05,5.33,1.84s1.07,4.02.82,6.09c-1.43,11.81-10.58,22.32-22.09,25.35-1.99.52-4.11.88-5.74,2.12-1.28.97-2.13,2.39-3.28,3.5-1.84,1.77-4.91,3.19-7.46,2.96"/><path class="cls-1" d="M210.78,66.48c.05,6.61.04,13.47.08,20.09"/><path class="cls-1" d="M205.41,144.35c1.27,29.02,7.86,48.98,13.76,69.57"/><path class="cls-1" d="M125.97,247.71c.36,3.02.62,8.83,1.11,11.83"/><path class="cls-1" d="M88.42,107.34c1.78.63,3.81.1,5.41-.91s2.88-2.44,4.21-3.79c6.5-6.59,14.71-11.48,23.61-14.04"/><path class="cls-1" d="M98.34,92.05c4.27-3.41,8.95-6.3,13.91-8.59"/><path class="cls-1" d="M51.4,123c1.08.13,2.19.26,3.25.01s2.08-.95,2.4-1.99c.16-.53.13-1.1.14-1.65.04-1.56.46-3.22-.21-4.64-.84-1.76-3.02-2.38-4.96-2.64-1.15-.15-2.32-.24-3.48-.28-.46-.01-.92-.02-1.35-.18s-.81-.53-.84-.99c-.06-.67.82-1.21,1.39-.85"/><path class="cls-1" d="M57.09,120.12c4.2-.49,8.41-.98,12.61-1.47.62-.07,1.32-.19,1.69-.7.26-.37.28-.86.22-1.31-.22-1.48-1.21-2.72-2.33-3.72-.71-.63-1.5-1.2-2.41-1.49-1.31-.41-2.72-.18-4.07.06-2.55.44-5.1.88-7.65,1.33"/><path class="cls-1" d="M180.05,84.31c2.32,12.03,5.37,23.91,9.13,35.57.11.34.23.7.48.96.67.69,1.95.26,2.43-.58s.41-1.87.32-2.83"/><path class="cls-1" d="M201.39,132.11c-1.4,1.45-1.35,3.85-.47,5.66.23.47.51.93.9,1.29.52.48,1.21.74,1.9.92,1.29.33,2.71.37,3.9-.22,2.06-1.03,2.84-3.78,2.12-5.96-.4-1.22-1.22-2.34-2.37-2.89-.99-.47-2.16-.5-3.22-.24s-2.09.75-2.76,1.45Z"/><path class="cls-1" d="M211.24,140.44c-.53,6.63-1.79,11.92-3,18.43-.14.74-.86,1.21-1.51,1.59"/></g></svg>